<svg xmlns="http://www.w3.org/2000/svg" height="24" viewBox="0 -960 960 960" width="24" fill="white"><path d="M108.018-98.001q-14.17 0-25.267-7.472-11.097-7.471-17.595-17.605-6.68-10.077-7.147-23-.468-12.923 7.085-26.165l372.43-640.512q7.553-13.242 18.399-18.665 10.846-5.424 24.077-5.424 13.231 0 24.077 5.424 10.846 5.423 18.399 18.665l372.43 640.512q7.553 13.242 7.085 26.165-.468 12.923-7.147 23-6.498 10.134-17.595 17.605-11.097 7.472-25.267 7.472H108.018ZM481-220.693q18.731 0 32.019-13.288 13.288-13.288 13.288-32.019 0-18.731-13.288-32.019-13.288-13.288-32.019-13.288-18.731 0-32.019 13.288-13.288 13.288-13.288 32.019 0 18.731 13.288 32.019 13.288 13.288 32.019 13.288Zm.013-127.614q17.756 0 30.371-12.625 12.615-12.625 12.615-30.374v-118.002q0-17.75-12.628-30.374-12.629-12.625-30.384-12.625-17.756 0-30.371 12.625-12.615 12.624-12.615 30.374v118.002q0 17.749 12.628 30.374 12.629 12.625 30.384 12.625Z"/></svg>