<?xml version="1.0" encoding="utf-8"?>
<!-- Generator: Adobe Illustrator 22.1.0, SVG Export Plug-In . SVG Version: 6.00 Build 0)  -->
<svg version="1.1" id="Sunshine_Logo" xmlns="http://www.w3.org/2000/svg" xmlns:xlink="http://www.w3.org/1999/xlink" x="0px"
	 y="0px" width="256px" height="256px" viewBox="0 0 256 256" style="enable-background:new 0 0 256 256;" xml:space="preserve">
<style type="text/css">
	.st0{fill:#FDD107;}
	.st1{fill:#F89A1C;}
	.st2{fill:#EF3E23;}
	.st3{fill:#F26222;}
</style>
<path class="st0" d="M118.7688675,20.7120476c0,0-63.8333359,26-74.3333359,83.8333282s37.1666718,91.5,86.3333282,75.3333282
	s70.3333435-51,81.8333435-86.9999924c0,0-9.3333435,100.4999924-96.1666718,115.4999924s-118.1666641-50-82.1666641-119.8333282
	C44.2688675,67.0453796,80.5188675,29.6287155,118.7688675,20.7120476z"/>
<path class="st1" d="M118.7688675,20.7120476c0,0-41.125,3.6666679-83.25,61.0416679s-28.125,139.125,34.25,149.375
	s115.8749924-44.875,133.5-82.375s15.1666718-61.4583282,9.75-77.8749924c0,0,0.6666718,36.4166641-13.3333282,59.6666641
	s-29.75,46.3333282-65.0833282,62.1666718s-74.1666718,13.75-95.4166718-19.25s-5.9166641-76.0833359-0.2916641-85.3333359
	S72.3938675,33.7953796,118.7688675,20.7120476z"/>
<path class="st2" d="M73.0188675,39.6287155c0,0,38.125-28.125,76.8749924-28.125s63,28.25,68.5,52.25s6,54.125-11.5,87.6249924
	s-37.375,56-79.1249924,76.125s-84.625,2.75-84.625,2.75s25.9769745,25.8750153,71.0509872,16.5
	c45.0740051-9.375,82.2406769-40.875,98.4073486-69.5s28.7916565-57.3749924,27.6666565-92.2499924s-23.75-54.5-31.25-60.25
	s-23.1875-17.8125-58.1875-16.5625S86.4563675,29.8162155,73.0188675,39.6287155z"/>
<path class="st3" d="M73.0188675,39.6287155c0,0,35-32.8125,82.4374924-32.8125s69.1875,24.8125,78.875,44.6875
	s21.8125,70-12.1875,122.9999924s-74.625,67.375-93.625,71.625s-42.4311447,4.269165-59.1114044-1.2299957
	c0,0,35.1947479,8.3966675,66.7780762-7.4366608s51.6666718-32.1666718,74.0833282-68.8333435
	s25.9166718-72.7499924,22.1666718-93.9166565s-12.1666718-42.4166718-36.5-56.3333359s-56.7291718-10.531251-74.4791641-4.531251
	S91.9876175,26.4099655,73.0188675,39.6287155z"/>
</svg>
