<?xml version="1.0" encoding="UTF-8" standalone="no"?>
<!-- Generator: Adobe Illustrator 22.1.0, SVG Export Plug-In . SVG Version: 6.00 Build 0)  -->

<svg
   version="1.1"
   id="Sunshine_Logo"
   x="0px"
   y="0px"
   width="256px"
   height="256px"
   viewBox="0 0 256 256"
   style="enable-background:new 0 0 256 256;"
   xml:space="preserve"
   sodipodi:docname="sunshine-locked.svg"
   inkscape:version="1.2.1 (9c6d41e410, 2022-07-14)"
   xmlns:inkscape="http://www.inkscape.org/namespaces/inkscape"
   xmlns:sodipodi="http://sodipodi.sourceforge.net/DTD/sodipodi-0.dtd"
   xmlns="http://www.w3.org/2000/svg"
   xmlns:svg="http://www.w3.org/2000/svg"><defs
   id="defs15" /><sodipodi:namedview
   id="namedview13"
   pagecolor="#ffffff"
   bordercolor="#000000"
   borderopacity="0.25"
   inkscape:showpageshadow="2"
   inkscape:pageopacity="0.0"
   inkscape:pagecheckerboard="0"
   inkscape:deskcolor="#d1d1d1"
   showgrid="false"
   showguides="true"
   inkscape:zoom="0.81054689"
   inkscape:cx="25.291566"
   inkscape:cy="47.498794"
   inkscape:window-width="1920"
   inkscape:window-height="991"
   inkscape:window-x="-9"
   inkscape:window-y="-9"
   inkscape:window-maximized="1"
   inkscape:current-layer="Sunshine_Logo"><sodipodi:guide
     position="82.968675,154.83373"
     orientation="1,0"
     id="guide453"
     inkscape:locked="false" /><sodipodi:guide
     position="82.968675,154.83373"
     orientation="0,-1"
     id="guide506"
     inkscape:locked="false" /></sodipodi:namedview>
<style
   type="text/css"
   id="style2">
	.st0{fill:#FDD107;}
	.st1{fill:#F89A1C;}
	.st2{fill:#EF3E23;}
	.st3{fill:#F26222;}
</style>
<path
   class="st0"
   d="M118.7688675,20.7120476c0,0-63.8333359,26-74.3333359,83.8333282s37.1666718,91.5,86.3333282,75.3333282  s70.3333435-51,81.8333435-86.9999924c0,0-9.3333435,100.4999924-96.1666718,115.4999924s-118.1666641-50-82.1666641-119.8333282  C44.2688675,67.0453796,80.5188675,29.6287155,118.7688675,20.7120476z"
   id="path4" />
<path
   class="st1"
   d="M118.7688675,20.7120476c0,0-41.125,3.6666679-83.25,61.0416679s-28.125,139.125,34.25,149.375  s115.8749924-44.875,133.5-82.375s15.1666718-61.4583282,9.75-77.8749924c0,0,0.6666718,36.4166641-13.3333282,59.6666641  s-29.75,46.3333282-65.0833282,62.1666718s-74.1666718,13.75-95.4166718-19.25s-5.9166641-76.0833359-0.2916641-85.3333359  S72.3938675,33.7953796,118.7688675,20.7120476z"
   id="path6" />
<path
   class="st2"
   d="M73.0188675,39.6287155c0,0,38.125-28.125,76.8749924-28.125s63,28.25,68.5,52.25s6,54.125-11.5,87.6249924  s-37.375,56-79.1249924,76.125s-84.625,2.75-84.625,2.75s25.9769745,25.8750153,71.0509872,16.5  c45.0740051-9.375,82.2406769-40.875,98.4073486-69.5s28.7916565-57.3749924,27.6666565-92.2499924s-23.75-54.5-31.25-60.25  s-23.1875-17.8125-58.1875-16.5625S86.4563675,29.8162155,73.0188675,39.6287155z"
   id="path8" />
<path
   class="st3"
   d="M73.0188675,39.6287155c0,0,35-32.8125,82.4374924-32.8125s69.1875,24.8125,78.875,44.6875  s21.8125,70-12.1875,122.9999924s-74.625,67.375-93.625,71.625s-42.4311447,4.269165-59.1114044-1.2299957  c0,0,35.1947479,8.3966675,66.7780762-7.4366608s51.6666718-32.1666718,74.0833282-68.8333435  s25.9166718-72.7499924,22.1666718-93.9166565s-12.1666718-42.4166718-36.5-56.3333359s-56.7291718-10.531251-74.4791641-4.531251  S91.9876175,26.4099655,73.0188675,39.6287155z"
   id="path10" />
<path
   d="m 158.02296,141.96684 v 13.57376 h 45.24591 v -13.57376 c 0,-12.49918 -10.12378,-22.62296 -22.62296,-22.62296 -12.49918,0 -22.62295,10.12378 -22.62295,22.62296 z m -18.09837,13.57376 v -13.57376 c 0,-22.48156 18.23976,-40.72132 40.72132,-40.72132 22.48156,0 40.72131,18.23976 40.72131,40.72132 v 13.57376 h 4.5246 c 9.98237,0 18.09836,8.11599 18.09836,18.09837 v 54.29509 c 0,9.98238 -8.11599,18.09836 -18.09836,18.09836 H 135.4 c -9.98238,0 -18.09837,-8.11598 -18.09837,-18.09836 v -54.29509 c 0,-9.98238 8.11599,-18.09837 18.09837,-18.09837 z"
   id="path240"
   style="stroke-width:8.5;stroke:#777777;stroke-opacity:1;stroke-dasharray:none;fill:#999999;fill-opacity:1" /></svg>
