<?xml version="1.0" standalone="no"?>
<!DOCTYPE svg PUBLIC "-//W3C//DTD SVG 20010904//EN"
 "http://www.w3.org/TR/2001/REC-SVG-20010904/DTD/svg10.dtd">
<svg version="1.0" xmlns="http://www.w3.org/2000/svg"
 width="700.000000pt" height="700.000000pt" viewBox="0 0 700.000000 700.000000"
 preserveAspectRatio="xMidYMid meet">
<metadata>
Created by potrace 1.14, written by Peter Selinger 2001-2017
</metadata>
<g transform="translate(0.000000,700.000000) scale(0.100000,-0.100000)"
fill="#000000" stroke="none">
<path d="M4217 6814 c-1 -1 -56 -4 -122 -8 -66 -3 -133 -8 -150 -10 -16 -2
-55 -7 -86 -10 -31 -4 -67 -9 -80 -11 -13 -3 -40 -7 -60 -10 -21 -3 -93 -19
-161 -36 -429 -104 -842 -292 -1243 -566 -105 -72 -285 -210 -285 -219 0 -2
24 12 53 31 536 355 1133 602 1647 681 73 11 87 13 170 20 108 10 281 10 385
1 79 -7 253 -35 265 -42 4 -2 19 -6 34 -9 122 -22 324 -103 501 -200 113 -62
285 -196 394 -306 286 -290 465 -642 527 -1035 3 -16 9 -55 14 -85 5 -30 12
-77 15 -105 4 -27 8 -61 11 -75 20 -124 21 -607 0 -715 -2 -11 -7 -47 -11 -80
-4 -32 -9 -68 -11 -80 -7 -33 -13 -67 -19 -109 -24 -150 -123 -470 -210 -681
-46 -112 -177 -374 -239 -478 -25 -43 -46 -80 -46 -82 0 -7 -120 -201 -183
-295 -217 -325 -452 -589 -737 -830 -36 -30 -67 -57 -70 -60 -3 -3 -45 -36
-95 -73 -49 -37 -96 -71 -102 -77 -31 -26 -280 -184 -393 -250 -121 -70 -443
-238 -525 -272 -210 -89 -483 -166 -690 -193 -27 -4 -61 -8 -75 -10 -127 -19
-443 -25 -605 -12 -262 22 -538 76 -785 155 l-65 21 40 -35 c198 -171 573
-350 865 -413 227 -48 369 -62 650 -61 274 0 481 20 710 67 41 8 83 16 92 18
34 7 175 48 268 77 636 204 1272 642 1770 1218 45 52 92 106 104 120 12 14 44
54 71 90 28 36 53 67 56 70 29 26 234 330 333 493 205 339 394 807 460 1137 3
14 7 36 11 50 48 217 70 453 70 735 -1 208 -9 336 -30 465 -2 14 -6 43 -10 65
-3 23 -7 52 -10 65 -3 14 -9 50 -15 80 -57 297 -194 657 -328 859 -23 34 -42
64 -42 67 0 6 -92 126 -145 189 -56 66 -207 214 -270 262 -66 52 -186 137
-205 146 -8 4 -31 17 -50 29 -221 134 -613 264 -890 293 -30 3 -68 8 -85 10
-60 9 -381 24 -388 19z"/>
<path d="M3083 6400 c-602 -157 -1243 -602 -1809 -1255 -451 -520 -706 -979
-858 -1545 -14 -52 -28 -108 -31 -125 -30 -158 -46 -250 -49 -286 -3 -24 -8
-80 -13 -124 -15 -148 -8 -533 12 -635 3 -13 7 -42 10 -65 25 -174 84 -382
162 -570 270 -643 823 -1055 1513 -1130 30 -3 72 -8 93 -11 50 -8 379 -7 437
0 25 4 65 9 90 12 84 10 173 25 240 39 94 20 98 21 150 35 276 74 611 221 875
385 104 64 294 192 305 205 3 3 23 19 45 35 168 124 524 456 667 623 31 37 67
78 78 92 12 14 34 40 48 59 15 19 38 48 52 65 195 240 408 598 533 896 70 165
136 343 151 405 2 6 6 17 9 25 25 62 99 381 112 485 4 28 8 60 10 72 16 99 23
385 11 483 -15 126 -21 167 -42 265 -13 60 -26 115 -27 120 -2 6 -9 29 -16 53
-6 23 -13 42 -14 42 -2 0 -3 -28 -4 -62 0 -68 -11 -274 -17 -323 -2 -16 -7
-61 -11 -100 -4 -38 -9 -78 -11 -88 -2 -10 -8 -55 -15 -100 -18 -131 -144
-443 -282 -702 -212 -396 -426 -666 -780 -981 -7 -6 -63 -49 -124 -95 -308
-232 -692 -423 -1093 -543 -94 -28 -96 -28 -260 -58 -126 -22 -449 -33 -532
-18 -25 5 -63 11 -84 14 -324 40 -682 211 -928 445 -46 43 -176 195 -204 237
-180 274 -272 540 -299 864 -11 139 -6 377 12 470 2 14 6 41 9 60 4 34 30 160
46 230 50 216 161 477 299 705 323 532 901 1038 1550 1359 74 36 126 66 115
66 -10 -1 -70 -14 -131 -30z"/>
</g>
</svg>
